<svg width="21" height="21" viewBox="0 0 21 21" fill="none" xmlns="http://www.w3.org/2000/svg">
<path d="M19.9061 7.54923L19.9061 12.5492L19.0728 12.5492L19.0728 14.2159L18.2394 14.2159L18.2394 15.8826L17.4061 15.8826L17.4061 16.7159L16.5728 16.7159L16.5728 17.5492L15.7394 17.5492L15.7394 18.3826L14.0728 18.3826L14.0728 19.2159L13.2394 19.2159L13.2394 15.0492L12.4061 15.0492L12.4061 14.2159L13.2394 14.2159L13.2394 13.3826L14.9061 13.3826L14.9061 12.5492L15.7394 12.5492L15.7394 11.7159L16.5728 11.7159L16.5728 7.54923L15.7394 7.54923L15.7394 5.04923L14.0728 5.04923L14.0728 5.88257L13.2394 5.88257L13.2394 6.7159L12.4061 6.7159L12.4061 5.88257L9.07275 5.88257L9.07275 6.7159L8.23942 6.7159L8.23942 5.88257L7.40609 5.88257L7.40609 5.04923L5.73942 5.04923L5.73942 7.54923L4.90609 7.54923L4.90609 11.7159L5.73942 11.7159L5.73942 12.5492L6.57275 12.5492L6.57275 13.3826L8.23942 13.3826L8.23942 15.0492L6.57275 15.0492L6.57275 14.2159L5.73942 14.2159L5.73942 13.3826L4.07275 13.3826L4.07275 14.2159L4.90609 14.2159L4.90609 15.8826L5.73942 15.8826L5.73942 16.7159L8.23942 16.7159L8.23942 19.2159L7.40609 19.2159L7.40609 18.3826L5.73942 18.3826L5.73942 17.5492L4.90609 17.5492L4.90609 16.7159L4.07275 16.7159L4.07275 15.8826L3.23942 15.8826L3.23942 14.2159L2.40609 14.2159L2.40609 12.5492L1.57275 12.5492L1.57275 7.54923L2.40609 7.54923L2.40609 5.88257L3.23942 5.88257L3.23942 4.2159L4.07275 4.2159L4.07275 3.38257L4.90609 3.38257L4.90609 2.54923L6.57275 2.54923L6.57275 1.7159L8.23942 1.7159L8.23942 0.882568L13.2394 0.882568L13.2394 1.7159L14.9061 1.7159L14.9061 2.54923L16.5728 2.54923L16.5728 3.38257L17.4061 3.38257L17.4061 4.2159L18.2394 4.2159L18.2394 5.88257L19.0728 5.88257L19.0728 7.54923L19.9061 7.54923Z" fill="#0A0C11"/>
</svg>
