<svg width="21" height="22" viewBox="0 0 21 22" fill="none" xmlns="http://www.w3.org/2000/svg">
<path d="M7.60487 6.86499L6.77155 6.85909L6.76565 7.69241L5.93234 7.68651L5.92644 8.51982L5.09313 8.51392L5.05774 13.5138L5.89105 13.5197L5.88515 14.353L6.71846 14.3589L6.71256 15.1922L7.54588 15.1981L7.53998 16.0314L12.5399 16.0668L12.5458 15.2335L13.3791 15.2394L13.385 14.4061L14.2183 14.412L14.2242 13.5787L15.0575 13.5846L15.0929 8.58471L14.2596 8.57881L14.2655 7.7455L13.4322 7.7396L13.4381 6.90629L12.6047 6.90039L12.6106 6.06707L7.61077 6.03168L7.60487 6.86499ZM11.7655 7.7278L11.7596 8.56111L12.5929 8.56701L12.587 9.40032L13.4204 9.40622L13.3968 12.7395L12.5634 12.7336L12.5575 13.5669L11.7242 13.561L11.7183 14.3943L8.38509 14.3707L8.39099 13.5374L7.55767 13.5315L7.56357 12.6982L6.73026 12.6923L6.75386 9.35903L7.58717 9.36493L7.59307 8.53162L8.42638 8.53752L8.43228 7.7042L11.7655 7.7278Z" fill="#0A0C11"/>
<path d="M4.30039 2.67485L2.63377 2.66306L2.62787 3.49637L1.79456 3.49047L1.78276 5.15709L0.949445 5.15119L0.866858 16.8176L1.70017 16.8235L1.68837 18.4901L2.52168 18.496L2.51579 19.3293L4.18241 19.3411L4.17651 20.1744L15.8429 20.257L15.8488 19.4237L17.5154 19.4355L17.5213 18.6022L18.3546 18.6081L18.3664 16.9414L19.1997 16.9473L19.2823 5.28097L18.449 5.27507L18.4608 3.60845L17.6275 3.60255L17.6334 2.76924L15.9668 2.75744L15.9727 1.92413L4.30629 1.84154L4.30039 2.67485ZM15.9609 3.59075L15.955 4.42407L16.7883 4.42996L16.7824 5.26328L17.6157 5.26918L17.5331 16.9355L16.6998 16.9297L16.6939 17.763L15.8606 17.7571L15.8547 18.5904L4.18831 18.5078L4.19421 17.6745L3.3609 17.6686L3.3668 16.8353L2.53348 16.8294L2.61607 5.16299L3.44938 5.16889L3.45528 4.33558L4.28859 4.34148L4.29449 3.50817L15.9609 3.59075Z" fill="#0A0C11"/>
<path d="M4.271 6.84137L4.28279 5.17474L5.94942 5.18654L5.93762 6.85317L4.271 6.84137Z" fill="#0A0C11"/>
</svg>
