<svg width="51" height="51" viewBox="0 0 51 51" fill="none" xmlns="http://www.w3.org/2000/svg">
<g clip-path="url(#clip0_82117_857)">
<g clip-path="url(#clip1_82117_857)">
<g clip-path="url(#clip2_82117_857)">
<path d="M49.3335 1.16663V49.1666H1.3335V1.16663H49.3335ZM21.8394 23.1481C21.8394 25.1654 21.8353 27.1767 21.8306 29.1901C21.8259 31.2032 21.8208 33.2186 21.8208 35.2418C21.8208 36.5704 21.8539 37.743 21.8345 38.7369C21.825 39.2243 21.8029 39.6254 21.7632 39.9352C21.7202 40.2696 21.6688 40.3862 21.6675 40.3893L21.6479 40.4225L21.6313 40.4576C21.4666 40.8014 21.1882 40.9695 20.7856 41.0348C20.383 41.1001 19.9408 41.0365 19.6401 40.9528C19.1919 40.7146 18.9139 40.4123 18.564 39.861L18.3999 39.5944L18.3989 39.5934L18.3149 39.4498C18.2884 39.4042 18.2576 39.3505 18.229 39.3033C18.2042 39.2624 18.1602 39.1927 18.1089 39.1256C18.0852 39.0947 18.0336 39.0281 17.9575 38.9606C17.9186 38.926 17.8504 38.8713 17.7563 38.8209C17.6659 38.7725 17.4983 38.6998 17.2769 38.6998H16.9937L16.7524 38.8483L12.9507 41.192L12.1812 41.6666L12.5747 42.4791C13.2315 43.8358 14.1922 45.0588 15.4604 45.8981L15.7183 46.0612L15.7212 46.0631C17.7559 47.2768 20.4187 47.6332 23.1333 47.024L23.1636 47.0172L23.1919 47.0084C25.0041 46.4853 26.6683 45.3813 27.564 43.5885L27.5649 43.5895C28.1949 42.4407 28.4215 41.1985 28.5015 39.9576C28.5794 38.7477 28.5204 37.4085 28.5151 36.1432C28.5401 31.8696 28.5152 27.5867 28.5151 23.2916L28.521 23.2194L28.5972 22.1481H21.8394V23.1481ZM37.8403 21.7897L37.7886 21.7906L37.7378 21.7975L36.269 21.983L36.2124 21.9899L36.1567 22.0035C34.6897 22.3616 33.2315 23.1252 32.2456 24.2155L32.0552 24.4381C30.6633 26.0349 30.2012 28.17 30.4644 30.1403C30.7124 31.9966 31.6179 33.8142 33.144 34.9869L33.4575 35.2125C34.9935 36.3485 36.8789 37.0493 38.2534 37.6442C38.9814 37.9592 39.5559 38.237 39.9731 38.5309C40.3696 38.8101 40.5214 39.034 40.5757 39.2106C40.6585 39.6397 40.608 39.918 40.5278 40.0992C40.4458 40.2847 40.296 40.4542 40.0444 40.6002C39.5139 40.9081 38.6333 41.0429 37.6255 40.9264C36.9326 40.767 36.4312 40.5244 35.9995 40.1832C35.5448 39.8238 35.1211 39.3212 34.6323 38.5807L34.1147 37.7955L33.3003 38.2643L29.4878 40.4537L28.7104 40.9L29.0698 41.7213C29.456 42.6041 29.918 43.1577 30.4116 43.7135L30.9136 44.2819L30.937 44.3092L30.9624 44.3346C33.0435 46.4348 36.5463 47.3438 39.6763 47.0387C42.8025 46.7339 45.9557 45.16 46.939 41.8453L46.9399 41.8463C47.0216 41.5929 47.4835 40.2059 47.1548 38.111L47.2251 38.0836C47.0124 36.7532 46.4621 35.5099 45.3394 34.3639C44.2414 33.2432 42.6348 32.2544 40.3706 31.3346C39.9805 31.1528 39.5782 30.9827 39.2183 30.8268C38.8367 30.6615 38.4946 30.5085 38.1909 30.3483C37.5989 30.0358 37.3082 29.7714 37.1812 29.5328C37.0331 28.974 37.0604 28.8297 37.0991 28.7018L37.1089 28.6705L37.1157 28.6383C37.1813 28.3563 37.3716 28.1464 37.7192 28.0162C38.0893 27.8777 38.5744 27.865 39.0103 27.9957V27.9948C39.5283 28.1561 40.0659 28.5732 40.4263 29.3385L40.9165 30.3785L41.8784 29.7496C44.0289 28.3437 44.0225 28.3477 45.5161 27.4176L46.3774 26.8815L45.8286 26.028C45.2627 25.1477 44.9345 24.6911 44.4751 24.2379C42.9286 22.5302 40.8806 21.7207 37.8403 21.7897Z" fill="#414651" stroke="#414651" stroke-width="2"/>
</g>
</g>
</g>
<defs>
<clipPath id="clip0_82117_857">
<rect width="50" height="50" fill="white" transform="translate(0.333496 0.166626)"/>
</clipPath>
<clipPath id="clip1_82117_857">
<rect width="50" height="50" fill="white" transform="translate(0.333496 0.166626)"/>
</clipPath>
<clipPath id="clip2_82117_857">
<rect width="50" height="50" fill="white" transform="translate(0.333496 0.166626)"/>
</clipPath>
</defs>
</svg>
