<svg width="21" height="21" viewBox="0 0 21 21" fill="none" xmlns="http://www.w3.org/2000/svg">
<path d="M18.7046 1.71596L18.7046 0.882629L2.03792 0.882629L2.03792 1.71596L1.20459 1.71596L1.20459 18.3826L2.03792 18.3826L2.03792 19.216L18.7046 19.216L18.7046 18.3826L19.5379 18.3826L19.5379 1.71596L18.7046 1.71596ZM11.2046 10.0493L11.2046 16.716L8.70459 16.716L8.70459 7.5493L11.2046 7.5493L11.2046 8.38263L12.0379 8.38263L12.0379 7.5493L15.3713 7.5493L15.3713 8.38263L16.2046 8.38263L16.2046 16.716L13.7046 16.716L13.7046 10.0493L11.2046 10.0493ZM3.70459 6.71596L3.70459 4.21596L6.20459 4.21596L6.20459 6.71596L3.70459 6.71596ZM6.20459 7.5493L6.20459 16.716L3.70459 16.716L3.70459 7.5493L6.20459 7.5493Z" fill="#0A0C11"/>
</svg>
