<svg width="42" height="24" viewBox="0 0 42 24" fill="none" xmlns="http://www.w3.org/2000/svg">
<g clip-path="url(#clip0_82288_209)">
<path d="M15.75 0.75V1.875H18V3H19.125V4.125H20.25V5.25H21.375V7.5H22.5V16.5H21.375V18.75H20.25V19.875H19.125V21H18V22.125H15.75V23.25H6.75V22.125H4.5V21H3.375V19.875H2.25V18.75H1.125V16.5H0V7.5H1.125V5.25H2.25V4.125H3.375V3H4.5V1.875H6.75V0.75H15.75ZM9 6.375V7.5H7.875V16.5H9V17.625H13.5V16.5H14.625V14.25H12.375V15.375H10.125V8.625H12.375V9.75H14.625V7.5H13.5V6.375H9Z" fill="white"/>
<g clip-path="url(#clip1_82288_209)">
<path d="M34.5 0.75V1.875H36.75V3H37.875V4.125H39V5.25H40.125V7.5H41.25V16.5H40.125V18.75H39V19.875H37.875V21H36.75V22.125H34.5V23.25H25.5V22.125H23.25V21H22.125V19.875H21V18.75H19.875V16.5H18.75V7.5H19.875V5.25H21V4.125H22.125V3H23.25V1.875H25.5V0.75H34.5ZM26.625 6.375V17.625H33.375V15.375H28.875V13.125H33.375V10.875H28.875V8.625H33.375V6.375H26.625Z" fill="white"/>
</g>
</g>
<defs>
<clipPath id="clip0_82288_209">
<rect width="41.25" height="22.5" fill="white" transform="translate(0 0.75)"/>
</clipPath>
<clipPath id="clip1_82288_209">
<rect width="22.5" height="22.5" fill="white" transform="translate(18.75 0.75)"/>
</clipPath>
</defs>
</svg>
