<svg width="62" height="54" viewBox="0 0 62 54" fill="none" xmlns="http://www.w3.org/2000/svg">
<rect width="61.25" height="52.5" transform="translate(0 0.75)" fill="black"/>
<g clip-path="url(#clip0_82288_214)">
<path d="M25.75 15.75V16.875H28V18H29.125V19.125H30.25V20.25H31.375V22.5H32.5V31.5H31.375V33.75H30.25V34.875H29.125V36H28V37.125H25.75V38.25H16.75V37.125H14.5V36H13.375V34.875H12.25V33.75H11.125V31.5H10V22.5H11.125V20.25H12.25V19.125H13.375V18H14.5V16.875H16.75V15.75H25.75ZM19 21.375V22.5H17.875V31.5H19V32.625H23.5V31.5H24.625V29.25H22.375V30.375H20.125V23.625H22.375V24.75H24.625V22.5H23.5V21.375H19Z" fill="white"/>
<g clip-path="url(#clip1_82288_214)">
<path d="M44.5 15.75V16.875H46.75V18H47.875V19.125H49V20.25H50.125V22.5H51.25V31.5H50.125V33.75H49V34.875H47.875V36H46.75V37.125H44.5V38.25H35.5V37.125H33.25V36H32.125V34.875H31V33.75H29.875V31.5H28.75V22.5H29.875V20.25H31V19.125H32.125V18H33.25V16.875H35.5V15.75H44.5ZM36.625 21.375V32.625H43.375V30.375H38.875V28.125H43.375V25.875H38.875V23.625H43.375V21.375H36.625Z" fill="white"/>
</g>
</g>
<defs>
<clipPath id="clip0_82288_214">
<rect width="41.25" height="22.5" fill="white" transform="translate(10 15.75)"/>
</clipPath>
<clipPath id="clip1_82288_214">
<rect width="22.5" height="22.5" fill="white" transform="translate(28.75 15.75)"/>
</clipPath>
</defs>
</svg>
