<svg width="51" height="51" viewBox="0 0 51 51" fill="none" xmlns="http://www.w3.org/2000/svg">
<g clip-path="url(#clip0_82117_889)">
<g clip-path="url(#clip1_82117_889)">
<g clip-path="url(#clip2_82117_889)">
<path d="M37.2261 20.4062C34.4124 8.78125 27.7609 4.96042 27.0463 3.5C26.4231 2.67917 25.8665 1.5125 25.4102 0.5C25.3301 1.53125 25.2878 1.92708 24.246 2.96667C22.6365 4.14583 14.3667 10.6375 13.6945 23.8417C13.0667 36.1583 23.1997 43.4979 24.5754 44.4333L24.7313 44.5375C25.0177 46.5203 25.2626 48.5082 25.4658 50.5H26.5366C26.7904 48.35 27.1688 46.2167 27.6719 44.1042C28.6001 43.4875 29.0164 43.1396 29.564 42.6604C32.1573 40.4152 34.2182 37.6856 35.6136 34.6482C37.009 31.6108 37.7077 28.3331 37.6646 25.0271C37.6869 23.3312 37.4353 21.5646 37.2261 20.4062ZM25.3479 37.4792C25.3479 37.4792 25.3479 20.2062 25.96 20.2083C26.4342 20.2083 27.0508 42.4896 27.0508 42.4896C26.2027 42.3958 25.3479 38.8229 25.3479 37.4792Z" fill="#414651"/>
</g>
</g>
</g>
<defs>
<clipPath id="clip0_82117_889">
<rect width="50" height="50" fill="white" transform="translate(0.666504 0.5)"/>
</clipPath>
<clipPath id="clip1_82117_889">
<rect width="50" height="50" fill="white" transform="translate(0.666504 0.5)"/>
</clipPath>
<clipPath id="clip2_82117_889">
<rect width="50" height="50" fill="white" transform="translate(0.666504 0.5)"/>
</clipPath>
</defs>
</svg>
