<svg width="51" height="51" viewBox="0 0 51 51" fill="none" xmlns="http://www.w3.org/2000/svg">
<g clip-path="url(#clip0_82117_879)">
<g clip-path="url(#clip1_82117_879)">
<path d="M24.4053 1.85693C25.2593 1.37787 26.4173 1.38086 27.2559 1.85693V1.85791L45.5762 12.4448H45.5771C46.4538 12.9509 47.0018 13.9016 47.002 14.9185V36.0649C47.0018 37.0801 46.4549 38.0294 45.5762 38.5405L27.2559 49.1196L27.2529 49.1216C26.8266 49.3697 26.3363 49.5004 25.8291 49.5005C25.3954 49.5005 24.9635 49.4004 24.5742 49.2085L24.4102 49.1206L19.2109 46.0444C19.6114 45.8743 19.9853 45.68 20.5771 45.3491L25.0352 47.9956L25.0498 48.0044L25.0645 48.0122C25.516 48.26 26.1275 48.283 26.6113 48.0005L26.6123 48.0015L44.9316 37.4272L44.9326 37.4282C45.4333 37.1411 45.7138 36.6026 45.7139 36.0649V14.9185C45.7138 14.4312 45.4885 13.9717 45.1113 13.6733L44.9404 13.5552L44.9287 13.5483L26.6143 2.98193C26.1937 2.73867 25.6778 2.7104 25.2363 2.89014L25.0527 2.97998L25.0498 2.98193L6.73926 13.5503C6.24768 13.8339 5.94934 14.3671 5.94922 14.9185V36.0649C5.94934 36.6183 6.24846 37.141 6.73926 37.4185V37.4204L11.7578 40.3198L11.7832 40.3354L11.8105 40.3481C13.3898 41.1384 14.852 41.1496 15.9707 40.5112C17.0614 39.8887 17.6494 38.7399 17.6494 37.6001V17.1958H19.0371V37.6001C19.0371 39.2425 18.5919 40.3963 17.8916 41.1343C17.1983 41.8648 16.131 42.3188 14.6123 42.3188C14.0877 42.3188 13.7125 42.3162 13.1992 42.1997C12.6753 42.0808 11.9676 41.8316 10.8525 41.2827L6.08105 38.5396C5.2076 38.0346 4.66223 37.0839 4.66211 36.0649V14.9185C4.66222 13.9631 5.14388 13.068 5.92285 12.5454L6.08203 12.4458L6.08301 12.4448L24.4062 1.85791L24.4053 1.85693ZM30.752 16.6313C33.5976 16.6314 35.5486 17.1304 36.8105 18.0151C37.9139 18.7888 38.5994 19.9368 38.8379 21.6167H37.3584C37.0192 20.3642 36.4236 19.3615 35.3154 18.7134C34.1816 18.0503 32.6606 17.854 30.752 17.854C28.57 17.854 27.1187 18.2268 26.2051 18.937C25.217 19.7054 25.0479 20.7103 25.0479 21.4233C25.0479 21.8086 25.0834 22.3098 25.3721 22.7847C25.667 23.2696 26.1309 23.5768 26.6631 23.7993C27.5418 24.1665 28.9638 24.4405 31.1836 24.7515L32.1855 24.8872C35.0152 25.2609 36.8866 25.6947 38.0537 26.4185C38.6075 26.7619 38.9802 27.159 39.2246 27.6401C39.4735 28.1303 39.622 28.7728 39.6221 29.6519C39.6221 31.3275 38.9457 32.5853 37.666 33.4644C36.3373 34.3769 34.2801 34.9302 31.4854 34.9292C27.6101 34.9292 25.4724 34.0384 24.3057 32.9673C23.2878 32.0327 22.8826 30.8435 22.8027 29.6353H24.2939C24.5184 30.8023 24.978 31.887 26.1143 32.6372C27.2929 33.4153 29.0303 33.7124 31.4854 33.7124C33.4474 33.7124 35.0324 33.4986 36.1533 32.9038C36.7365 32.5943 37.2138 32.1713 37.5371 31.6138C37.8585 31.0595 37.9893 30.4384 37.9893 29.7915C37.9892 29.442 37.9586 28.9676 37.7051 28.4927C37.4448 28.0052 37.0185 27.6398 36.46 27.356C35.4065 26.8207 33.6147 26.4459 30.6221 26.1528H30.623C28.123 25.9056 26.2941 25.5167 25.1006 24.8013C24.527 24.4574 24.1211 24.0485 23.8506 23.5532C23.5782 23.0544 23.4102 22.4061 23.4102 21.5337C23.4102 20.0057 24.0348 18.836 25.1992 18.0122C26.4045 17.1596 28.2614 16.6313 30.752 16.6313Z" fill="#2A9269" stroke="#414651" stroke-width="2"/>
</g>
</g>
<defs>
<clipPath id="clip0_82117_879">
<rect width="50" height="50" fill="white" transform="translate(0.833008 0.5)"/>
</clipPath>
<clipPath id="clip1_82117_879">
<rect width="50" height="50" fill="white" transform="translate(0.833008 0.5)"/>
</clipPath>
</defs>
</svg>
