<svg width="51" height="51" viewBox="0 0 51 51" fill="none" xmlns="http://www.w3.org/2000/svg">
<g clip-path="url(#clip0_82117_873)">
<g clip-path="url(#clip1_82117_873)">
<g clip-path="url(#clip2_82117_873)">
<path d="M30.1458 25.1725C30.1458 26.5593 29.6553 27.8893 28.7822 28.8701C27.909 29.8509 26.7247 30.4023 25.4896 30.4029C24.2541 30.4029 23.0693 29.8518 22.1956 28.8709C21.322 27.89 20.8312 26.5597 20.8312 25.1725C20.8312 23.7857 21.3218 22.4557 22.1949 21.4748C23.0681 20.494 24.2524 19.9427 25.4875 19.9421C26.723 19.9421 27.9078 20.4931 28.7814 21.474C29.655 22.4549 30.1458 23.7853 30.1458 25.1725ZM35.6625 0.166626C32.8583 0.166626 29.1896 2.41224 25.4792 6.29996C21.7708 2.43329 18.1 0.21341 15.2979 0.21341C14.4437 0.21341 13.6667 0.430953 12.9937 0.863702C10.1292 2.71867 9.4875 8.49879 10.9667 15.7526C4.625 17.9514 0.5 21.4672 0.5 25.1725C0.5 28.8918 4.64583 32.4169 11.0063 34.5994C9.53958 41.8812 10.1937 47.6707 13.0646 49.5234C13.7312 49.9608 14.5021 50.1666 15.3604 50.1666C18.1625 50.1666 21.8333 47.921 25.5437 44.0286C29.2521 47.8976 32.9229 50.1175 35.725 50.1175C36.5792 50.1175 37.3562 49.907 38.0292 49.4742C40.8917 47.6216 41.5354 41.8415 40.0562 34.5853C46.375 32.4052 50.5 28.8824 50.5 25.1725C50.5 21.4532 46.3542 17.928 39.9938 15.7409C41.4604 8.46604 40.8062 2.67189 37.9354 0.816918C37.2729 0.386509 36.5042 0.168965 35.6625 0.166626ZM35.6521 2.71633V2.73037C36.1208 2.73037 36.4979 2.83329 36.8146 3.02744C38.2021 3.92101 38.8042 7.31984 38.3354 11.6918C38.2229 12.7678 38.0396 13.9023 37.8146 15.0602C35.8146 14.5081 33.6354 14.0848 31.3417 13.8111C29.9667 11.6941 28.5396 9.7713 27.1021 8.08709C30.4188 4.62511 33.5333 2.72569 35.6542 2.71867L35.6521 2.71633ZM15.2979 2.76312C17.4062 2.76312 20.5354 4.65318 23.8604 8.09645C22.4312 9.78066 21.0062 11.6918 19.6521 13.8087C17.3458 14.0824 15.1646 14.5058 13.1667 15.0672C12.9333 13.921 12.7604 12.8122 12.6375 11.7456C12.1583 7.37598 12.75 3.97949 14.125 3.07423C14.5208 2.8637 14.9583 2.77481 15.2979 2.76312ZM25.4687 9.89762C26.4167 10.9924 27.3646 12.2181 28.3021 13.5561C27.3854 13.5093 26.4479 13.4766 25.5 13.4766C24.5417 13.4766 23.5938 13.5 22.6667 13.5561C23.5833 12.2181 24.5312 10.9947 25.4687 9.89762ZM25.5 16.0403C27.0417 16.0403 28.5771 16.1198 30.0875 16.2579C30.9333 17.6193 31.7583 19.0719 32.5521 20.6087C33.3271 22.1058 34.0312 23.6263 34.6729 25.1608C34.0312 26.6929 33.3271 28.2251 32.5625 29.7222C31.7708 31.266 30.9521 32.7351 30.1042 34.0965C28.5875 34.2438 27.05 34.3257 25.5 34.3257C23.9583 34.3257 22.4229 34.2438 20.9125 34.1082C20.0667 32.7467 19.2417 31.2918 18.4479 29.7573C17.6729 28.2602 16.9688 26.7397 16.3271 25.2052C16.9583 23.6684 17.6729 22.1339 18.4375 20.6345C19.2292 19.0906 20.0479 17.6263 20.8958 16.2649C22.4125 16.1152 23.95 16.0356 25.5 16.0356V16.0403ZM17.9271 16.6345C17.4271 17.5163 16.9271 18.4193 16.4604 19.3479C15.9917 20.2602 15.5542 21.1772 15.1375 22.0941C14.5854 20.5596 14.1167 19.0298 13.7292 17.5397C15.0625 17.1888 16.4687 16.8754 17.9271 16.6345ZM33.0521 16.6345C34.5 16.8754 35.8958 17.1725 37.2313 17.5397C36.8563 19.0181 36.3875 20.5386 35.8563 22.0614C35.4396 21.1491 35.0021 20.2298 34.5229 19.3152C34.0542 18.3982 33.5542 17.5046 33.0542 16.6345H33.0521ZM39.4333 18.2134C40.4417 18.5643 41.4 18.9549 42.2979 19.3783C45.9062 21.1093 48.2396 23.3736 48.2396 25.1701C48.2292 26.9666 45.8958 29.2403 42.2875 30.9596C41.4125 31.3807 40.4542 31.7596 39.4646 32.1128C38.8812 29.8719 38.1188 27.5374 37.1729 25.1421C38.1104 22.7631 38.8604 20.4403 39.4333 18.2087V18.2134ZM11.5271 18.2228C12.1062 20.4684 12.8708 22.8005 13.8187 25.1935C12.8812 27.5725 12.1271 29.8953 11.5562 32.1269C10.5479 31.776 9.58958 31.383 8.70208 30.9573C5.09375 29.2333 2.76042 26.9666 2.76042 25.1701C2.76042 23.3736 5.09375 21.0953 8.70208 19.3783C9.57708 18.9573 10.5354 18.5783 11.5271 18.2228ZM35.8563 28.2345C36.4083 29.7713 36.8771 31.3035 37.2646 32.7912C35.9312 33.1584 34.5229 33.4696 33.0646 33.7035C33.5646 32.8263 34.0646 31.921 34.5333 30.9947C35.0021 30.0824 35.4375 29.1514 35.8563 28.2345ZM15.1375 28.2812C15.5542 29.1982 15.9917 30.1128 16.4708 31.0298C16.95 31.9421 17.4396 32.8356 17.9396 33.7035C16.4917 33.4649 15.0958 33.1655 13.7604 32.8005C14.1354 31.3269 14.6062 29.8017 15.1354 28.2789L15.1375 28.2812ZM37.8333 35.2684C38.0667 36.4216 38.25 37.5327 38.3625 38.597C38.8417 42.9666 38.25 46.3631 36.875 47.2707C36.5687 47.4813 36.1708 47.5701 35.7021 47.5701C33.5937 47.5701 30.4646 45.6824 27.1396 42.2368C28.5687 40.5526 29.9937 38.6438 31.3479 36.5292C33.6542 36.2532 35.8354 35.8298 37.8333 35.2684ZM13.1875 35.2918C15.1875 35.8391 17.3667 36.2625 19.6604 36.5362C21.0354 38.6532 22.4625 40.576 23.9 42.2579C20.5771 45.7269 17.4583 47.6263 15.3375 47.6263C14.8792 47.6146 14.4917 47.5093 14.1854 47.3175C12.7979 46.4286 12.1958 43.0274 12.6646 38.6555C12.7771 37.5795 12.9625 36.4473 13.1875 35.2918ZM22.6875 36.7888C23.6042 36.8356 24.5417 36.8684 25.4896 36.8684C26.4479 36.8684 27.3958 36.845 28.3229 36.7888C27.4062 38.1269 26.4583 39.3503 25.5208 40.4497C24.5729 39.3503 23.625 38.1269 22.6875 36.7888Z" fill="#414651"/>
</g>
</g>
</g>
<defs>
<clipPath id="clip0_82117_873">
<rect width="50" height="50" fill="white" transform="translate(0.5 0.166626)"/>
</clipPath>
<clipPath id="clip1_82117_873">
<rect width="50" height="50" fill="white" transform="translate(0.5 0.166626)"/>
</clipPath>
<clipPath id="clip2_82117_873">
<rect width="50" height="50" fill="white" transform="translate(0.5 0.166626)"/>
</clipPath>
</defs>
</svg>
