<svg width="51" height="51" viewBox="0 0 51 51" fill="none" xmlns="http://www.w3.org/2000/svg">
<g clip-path="url(#clip0_82117_885)">
<path d="M13.1665 26.1666C16.0964 26.1666 18.1821 26.8435 19.8149 27.7838C21.0566 28.4989 22.0607 29.3783 23.0054 30.3014L23.937 31.235C25.3085 32.6273 26.7579 34.1313 28.7651 34.7711L29.1743 34.8864C31.0342 35.3513 32.8215 35.2413 34.4976 34.5231C34.8911 34.3544 35.2742 34.1527 35.6479 33.9215C34.9605 35.1297 34.1316 36.1133 33.1665 36.8854C31.301 38.3778 28.8307 39.1666 25.6665 39.1666C22.7377 39.1666 20.6529 38.4898 19.02 37.5494C17.364 36.5958 16.1295 35.3505 14.895 34.0983H14.896C13.5246 32.706 12.0751 31.202 10.0679 30.5621L9.65869 30.4469C7.79881 29.982 6.01149 30.0919 4.33545 30.8102C3.9418 30.9789 3.55793 31.1795 3.18408 31.4108C3.87148 30.2027 4.70147 29.2199 5.6665 28.4479C7.53202 26.9555 10.0023 26.1666 13.1665 26.1666ZM25.6665 11.1666C28.5964 11.1666 30.6821 11.8435 32.3149 12.7838C33.5566 13.4989 34.5607 14.3783 35.5054 15.3014L36.437 16.235C37.8085 17.6273 39.2579 19.1313 41.2651 19.7711L41.6743 19.8864C43.5342 20.3513 45.3215 20.2413 46.9976 19.5231C47.3911 19.3544 47.7742 19.1527 48.1479 18.9215C47.4605 20.1297 46.6316 21.1133 45.6665 21.8854C43.801 23.3778 41.3307 24.1666 38.1665 24.1666C35.2377 24.1666 33.1529 23.4898 31.52 22.5494C29.864 21.5958 28.6295 20.3505 27.395 19.0983H27.396C26.0246 17.706 24.5751 16.202 22.5679 15.5621L22.1587 15.4469C20.2988 14.982 18.5115 15.0919 16.8354 15.8102C16.4418 15.9789 16.0579 16.1795 15.6841 16.4108C16.3715 15.2027 17.2015 14.2199 18.1665 13.4479C20.032 11.9555 22.5023 11.1666 25.6665 11.1666Z" fill="#414651" stroke="#414651" stroke-width="2"/>
</g>
<defs>
<clipPath id="clip0_82117_885">
<rect width="50" height="50" fill="white" transform="translate(0.666504 0.166626)"/>
</clipPath>
</defs>
</svg>
