<svg width="21" height="22" viewBox="0 0 21 22" fill="none" xmlns="http://www.w3.org/2000/svg">
<path d="M7.92037 12.6952L7.91447 13.5286L7.08116 13.5227L7.07526 14.356L6.24195 14.3501L6.23605 15.1834L5.40273 15.1775L5.39684 16.0108L4.56352 16.0049L4.55762 16.8382L3.72431 16.8323L3.71841 17.6656L2.8851 17.6597L2.8792 18.493L2.04589 18.4871L2.03999 19.3205L4.53993 19.3382L4.54583 18.5048L5.37914 18.5107L5.38504 17.6774L6.21835 17.6833L6.22425 16.85L7.05756 16.8559L7.06346 16.0226L7.89677 16.0285L7.90267 15.1952L8.73598 15.2011L8.74188 14.3678L10.4085 14.3796L10.4026 15.2129L11.2359 15.2188L11.23 16.0521L12.0633 16.058L12.0515 17.7246L12.8848 17.7305L12.879 18.5638L13.7123 18.5697L13.7064 19.403L19.5396 19.4443L19.5454 18.611L18.7121 18.6051L18.718 17.7718L17.8847 17.7659L17.8906 16.9326L17.0573 16.9267L17.0691 15.2601L16.2358 15.2542L16.2417 14.4209L15.4084 14.415L15.4202 12.7483L14.5869 12.7424L14.5928 11.9091L13.7595 11.9032L13.7713 10.2366L12.9379 10.2307L12.9438 9.39739L13.7772 9.40329L13.7831 8.56998L14.6164 8.57588L14.6223 7.74257L15.4556 7.74847L15.4615 6.91515L16.2948 6.92105L16.3007 6.08774L17.134 6.09364L17.1399 5.26033L17.9732 5.26623L17.9791 4.43291L18.8124 4.43881L18.8183 3.6055L19.6516 3.6114L19.6575 2.77809L17.1576 2.76039L17.1517 3.5937L16.3184 3.5878L16.3125 4.42112L15.4792 4.41522L15.4733 5.24853L14.64 5.24263L14.6341 6.07594L13.8007 6.07004L13.7948 6.90336L12.9615 6.89746L12.9556 7.73077L11.289 7.71897L11.2949 6.88566L10.4616 6.87976L10.4675 6.04645L9.63419 6.04055L9.64598 4.37392L8.81267 4.36802L8.81857 3.53471L7.98526 3.52881L7.99116 2.6955L2.15797 2.65421L2.15207 3.48752L2.98538 3.49342L2.97948 4.32673L3.8128 4.33263L3.8069 5.16594L4.64021 5.17184L4.62841 6.83847L5.46172 6.84437L5.45583 7.67768L6.28914 7.68358L6.27734 9.3502L7.11065 9.3561L7.10475 10.1894L7.93807 10.1953L7.92627 11.8619L8.75958 11.8678L8.75368 12.7011L7.92037 12.6952ZM7.94397 9.362L7.94986 8.52869L7.11655 8.52279L7.12835 6.85616L6.29504 6.85026L6.30094 6.01695L5.46762 6.01105L5.47942 4.34443L7.97936 4.36213L7.96756 6.02875L8.80087 6.03465L8.79497 6.86796L9.62829 6.87386L9.62239 7.70717L10.4557 7.71307L10.4439 9.3797L11.2772 9.3856L11.2713 10.2189L12.1046 10.2248L12.0987 11.0581L12.932 11.064L12.9202 12.7306L13.7536 12.7365L13.7477 13.5699L14.581 13.5758L14.5692 15.2424L15.4025 15.2483L15.3966 16.0816L16.2299 16.0875L16.2181 17.7541L13.7182 17.7364L13.7241 16.9031L12.8907 16.8972L12.9025 15.2306L12.0692 15.2247L12.0751 14.3914L11.2418 14.3855L11.2536 12.7188L10.4203 12.7129L10.4262 11.8796L9.59289 11.8737L9.59879 11.0404L8.76548 11.0345L8.77728 9.3679L7.94397 9.362Z" fill="#0A0C11"/>
</svg>
